<svg xmlns="http://www.w3.org/2000/svg" width="1920" height="1080"><path d="M1116,486L1209,424L1125,363Z" fill="#41d2c1" stroke="#41d2c1" stroke-width="1.51"/><path d="M1116,486L1297,532L1209,424Z" fill="#40d1c3" stroke="#40d1c3" stroke-width="1.51"/><path d="M1209,424L1159,188L1125,363Z" fill="#41d4bf" stroke="#41d4bf" stroke-width="1.51"/><path d="M1297,532L1362,408L1209,424Z" fill="#41d0c4" stroke="#41d0c4" stroke-width="1.51"/><path d="M1362,408L1159,188L1209,424Z" fill="#41d3c1" stroke="#41d3c1" stroke-width="1.51"/><path d="M1125,363L849,557L1116,486Z" fill="#41d3c1" stroke="#41d3c1" stroke-width="1.51"/><path d="M1159,188L1093,162L1125,363Z" fill="#42d6bd" stroke="#42d6bd" stroke-width="1.51"/><path d="M1116,486L1258,670L1297,532Z" fill="#40cfc5" stroke="#40cfc5" stroke-width="1.51"/><path d="M1297,532L1425,496L1362,408Z" fill="#40cfc5" stroke="#40cfc5" stroke-width="1.51"/><path d="M1116,486L1136,706L1258,670Z" fill="#40cfc6" stroke="#40cfc6" stroke-width="1.51"/><path d="M1258,670L1425,496L1297,532Z" fill="#3fcec7" stroke="#3fcec7" stroke-width="1.51"/><path d="M810,305L849,557L1125,363Z" fill="#42d5be" stroke="#42d5be" stroke-width="1.51"/><path d="M1116,486L849,557L1136,706Z" fill="#40d1c3" stroke="#40d1c3" stroke-width="1.51"/><path d="M1093,162L810,305L1125,363Z" fill="#42d6bc" stroke="#42d6bc" stroke-width="1.51"/><path d="M1362,408L1359,101L1159,188Z" fill="#41d4bf" stroke="#41d4bf" stroke-width="1.51"/><path d="M1159,188L1324,61L1093,162Z" fill="#42d7bc" stroke="#42d7bc" stroke-width="1.51"/><path d="M1543,311L1359,101L1362,408Z" fill="#41d2c2" stroke="#41d2c2" stroke-width="1.51"/><path d="M1093,162L825,193L810,305Z" fill="#42d9ba" stroke="#42d9ba" stroke-width="1.51"/><path d="M908,-80L825,193L1093,162Z" fill="#42dbb8" stroke="#42dbb8" stroke-width="1.51"/><path d="M1359,101L1324,61L1159,188Z" fill="#42d6bd" stroke="#42d6bd" stroke-width="1.51"/><path d="M1425,496L1543,311L1362,408Z" fill="#40cfc5" stroke="#40cfc5" stroke-width="1.51"/><path d="M1359,101L1425,-10L1324,61Z" fill="#42d7bc" stroke="#42d7bc" stroke-width="1.51"/><path d="M810,305L727,417L849,557Z" fill="#42d7bd" stroke="#42d7bd" stroke-width="1.51"/><path d="M691,132L727,417L810,305Z" fill="#42dab9" stroke="#42dab9" stroke-width="1.51"/><path d="M901,799L1137,860L1136,706Z" fill="#3fccc8" stroke="#3fccc8" stroke-width="1.51"/><path d="M1136,706L1137,860L1258,670Z" fill="#3fccc9" stroke="#3fccc9" stroke-width="1.51"/><path d="M1536,696L1601,470L1425,496Z" fill="#3ecbc9" stroke="#3ecbc9" stroke-width="1.51"/><path d="M849,557L901,799L1136,706Z" fill="#40d0c4" stroke="#40d0c4" stroke-width="1.51"/><path d="M738,725L901,799L849,557Z" fill="#41d1c2" stroke="#41d1c2" stroke-width="1.51"/><path d="M1425,496L1601,470L1543,311Z" fill="#3fcec6" stroke="#3fcec6" stroke-width="1.51"/><path d="M1536,696L1425,496L1258,670Z" fill="#3eccc9" stroke="#3eccc9" stroke-width="1.51"/><path d="M727,417L676,505L849,557Z" fill="#42d6bd" stroke="#42d6bd" stroke-width="1.51"/><path d="M555,569L676,505L475,341Z" fill="#42d8ba" stroke="#42d8ba" stroke-width="1.51"/><path d="M1502,781L1536,696L1258,670Z" fill="#3dc9cb" stroke="#3dc9cb" stroke-width="1.51"/><path d="M846,1019L946,885L901,799Z" fill="#3fccc8" stroke="#3fccc8" stroke-width="1.51"/><path d="M901,799L946,885L1137,860Z" fill="#3fccc8" stroke="#3fccc8" stroke-width="1.51"/><path d="M676,505L738,725L849,557Z" fill="#41d4bf" stroke="#41d4bf" stroke-width="1.51"/><path d="M1479,831L1502,781L1258,670Z" fill="#3dc9cc" stroke="#3dc9cc" stroke-width="1.51"/><path d="M1137,860L1309,912L1258,670Z" fill="#3dcaca" stroke="#3dcaca" stroke-width="1.51"/><path d="M1096,1078L1309,912L1137,860Z" fill="#3cc8cd" stroke="#3cc8cd" stroke-width="1.51"/><path d="M1324,61L1075,-88L1093,162Z" fill="#42d9b9" stroke="#42d9b9" stroke-width="1.51"/><path d="M1617,92L1425,-10L1359,101Z" fill="#42d6bd" stroke="#42d6bd" stroke-width="1.51"/><path d="M1324,61L1414,-140L1075,-88Z" fill="#42dab8" stroke="#42dab8" stroke-width="1.51"/><path d="M1309,912L1479,831L1258,670Z" fill="#3dc9cb" stroke="#3dc9cb" stroke-width="1.51"/><path d="M825,193L691,132L810,305Z" fill="#42dbb8" stroke="#42dbb8" stroke-width="1.51"/><path d="M908,-80L691,132L825,193Z" fill="#42ddb5" stroke="#42ddb5" stroke-width="1.51"/><path d="M1075,-88L908,-80L1093,162Z" fill="#42dcb7" stroke="#42dcb7" stroke-width="1.51"/><path d="M1724,121L1617,92L1543,311Z" fill="#41d1c2" stroke="#41d1c2" stroke-width="1.51"/><path d="M1543,311L1617,92L1359,101Z" fill="#41d3c1" stroke="#41d3c1" stroke-width="1.51"/><path d="M676,505L555,569L738,725Z" fill="#41d5be" stroke="#41d5be" stroke-width="1.51"/><path d="M475,341L676,505L727,417Z" fill="#42d9ba" stroke="#42d9ba" stroke-width="1.51"/><path d="M979,-223L870,-119L908,-80Z" fill="#42e0b2" stroke="#42e0b2" stroke-width="1.51"/><path d="M908,-80L676,-71L691,132Z" fill="#42dfb3" stroke="#42dfb3" stroke-width="1.51"/><path d="M1632,-156L1414,-140L1425,-10Z" fill="#42d8bb" stroke="#42d8bb" stroke-width="1.51"/><path d="M1425,-10L1414,-140L1324,61Z" fill="#42d8ba" stroke="#42d8ba" stroke-width="1.51"/><path d="M1075,-88L979,-223L908,-80Z" fill="#42dfb3" stroke="#42dfb3" stroke-width="1.51"/><path d="M946,885L1096,1078L1137,860Z" fill="#3dcacb" stroke="#3dcacb" stroke-width="1.51"/><path d="M1309,912L1406,1089L1479,831Z" fill="#3bc6d0" stroke="#3bc6d0" stroke-width="1.51"/><path d="M846,1019L1096,1078L946,885Z" fill="#3dcacb" stroke="#3dcacb" stroke-width="1.51"/><path d="M846,1019L901,799L686,976Z" fill="#3fcdc7" stroke="#3fcdc7" stroke-width="1.51"/><path d="M1617,92L1677,18L1425,-10Z" fill="#42d5be" stroke="#42d5be" stroke-width="1.51"/><path d="M1880,427L1724,121L1543,311Z" fill="#3fcec6" stroke="#3fcec6" stroke-width="1.51"/><path d="M1880,427L1543,311L1601,470Z" fill="#3fcdc8" stroke="#3fcdc8" stroke-width="1.51"/><path d="M686,976L901,799L738,725Z" fill="#40cfc5" stroke="#40cfc5" stroke-width="1.51"/><path d="M1315,-267L979,-223L1075,-88Z" fill="#42deb3" stroke="#42deb3" stroke-width="1.51"/><path d="M1724,121L1677,18L1617,92Z" fill="#41d3c1" stroke="#41d3c1" stroke-width="1.51"/><path d="M440,88L475,341L691,132Z" fill="#42deb4" stroke="#42deb4" stroke-width="1.51"/><path d="M691,132L475,341L727,417Z" fill="#42dbb8" stroke="#42dbb8" stroke-width="1.51"/><path d="M870,-119L676,-71L908,-80Z" fill="#42e0b2" stroke="#42e0b2" stroke-width="1.51"/><path d="M662,-215L676,-71L870,-119Z" fill="#42e2af" stroke="#42e2af" stroke-width="1.51"/><path d="M1096,1078L1237,1119L1309,912Z" fill="#3bc6cf" stroke="#3bc6cf" stroke-width="1.51"/><path d="M1109,1251L1237,1119L1096,1078Z" fill="#39c5d0" stroke="#39c5d0" stroke-width="1.51"/><path d="M1536,696L1801,685L1601,470Z" fill="#3cc9cc" stroke="#3cc9cc" stroke-width="1.51"/><path d="M1727,906L1801,685L1536,696Z" fill="#3ac5cf" stroke="#3ac5cf" stroke-width="1.51"/><path d="M1727,906L1536,696L1502,781Z" fill="#3bc6cf" stroke="#3bc6cf" stroke-width="1.51"/><path d="M1727,906L1502,781L1479,831Z" fill="#3bc6cf" stroke="#3bc6cf" stroke-width="1.51"/><path d="M394,569L519,760L555,569Z" fill="#42d6bd" stroke="#42d6bd" stroke-width="1.51"/><path d="M555,569L519,760L738,725Z" fill="#41d4bf" stroke="#41d4bf" stroke-width="1.51"/><path d="M1237,1119L1406,1089L1309,912Z" fill="#3ac5d1" stroke="#3ac5d1" stroke-width="1.51"/><path d="M1414,-140L1315,-267L1075,-88Z" fill="#42dcb6" stroke="#42dcb6" stroke-width="1.51"/><path d="M1632,-156L1315,-267L1414,-140Z" fill="#42dab8" stroke="#42dab8" stroke-width="1.51"/><path d="M519,760L686,976L738,725Z" fill="#40d1c3" stroke="#40d1c3" stroke-width="1.51"/><path d="M1801,685L1871,482L1601,470Z" fill="#3dc9cc" stroke="#3dc9cc" stroke-width="1.51"/><path d="M1871,482L1880,427L1601,470Z" fill="#3ecacb" stroke="#3ecacb" stroke-width="1.51"/><path d="M1828,-61L1632,-156L1677,18Z" fill="#42d5bf" stroke="#42d5bf" stroke-width="1.51"/><path d="M445,1109L737,1061L686,976Z" fill="#3fcdc7" stroke="#3fcdc7" stroke-width="1.51"/><path d="M686,976L737,1061L846,1019Z" fill="#3eccc8" stroke="#3eccc8" stroke-width="1.51"/><path d="M846,1019L1109,1251L1096,1078Z" fill="#3bc7ce" stroke="#3bc7ce" stroke-width="1.51"/><path d="M1649,996L1727,906L1479,831Z" fill="#39c4d1" stroke="#39c4d1" stroke-width="1.51"/><path d="M1951,509L1880,427L1871,482Z" fill="#3dc8cc" stroke="#3dc8cc" stroke-width="1.51"/><path d="M1677,18L1632,-156L1425,-10Z" fill="#42d6bd" stroke="#42d6bd" stroke-width="1.51"/><path d="M1828,-61L1677,18L1724,121Z" fill="#41d3c1" stroke="#41d3c1" stroke-width="1.51"/><path d="M1406,1089L1649,996L1479,831Z" fill="#39c4d2" stroke="#39c4d2" stroke-width="1.51"/><path d="M475,341L394,569L555,569Z" fill="#42d9ba" stroke="#42d9ba" stroke-width="1.51"/><path d="M475,341L341,289L394,569Z" fill="#42dcb7" stroke="#42dcb7" stroke-width="1.51"/><path d="M458,-9L440,88L691,132Z" fill="#42e0b1" stroke="#42e0b1" stroke-width="1.51"/><path d="M1880,427L1936,375L1724,121Z" fill="#3eccc8" stroke="#3eccc8" stroke-width="1.51"/><path d="M1951,509L1936,375L1880,427Z" fill="#3dc9cc" stroke="#3dc9cc" stroke-width="1.51"/><path d="M1951,509L1871,482L1801,685Z" fill="#3bc7ce" stroke="#3bc7ce" stroke-width="1.51"/><path d="M676,-71L458,-9L691,132Z" fill="#42e0b1" stroke="#42e0b1" stroke-width="1.51"/><path d="M979,-223L662,-215L870,-119Z" fill="#42e2b0" stroke="#42e2b0" stroke-width="1.51"/><path d="M1315,-267L662,-215L979,-223Z" fill="#42e1b1" stroke="#42e1b1" stroke-width="1.51"/><path d="M519,760L493,902L686,976Z" fill="#40d1c3" stroke="#40d1c3" stroke-width="1.51"/><path d="M343,807L493,902L519,760Z" fill="#41d3c0" stroke="#41d3c0" stroke-width="1.51"/><path d="M502,-142L458,-9L676,-71Z" fill="#42e3ae" stroke="#42e3ae" stroke-width="1.51"/><path d="M1949,802L1951,509L1801,685Z" fill="#3ac5d0" stroke="#3ac5d0" stroke-width="1.51"/><path d="M346,255L341,289L475,341Z" fill="#42deb4" stroke="#42deb4" stroke-width="1.51"/><path d="M346,255L475,341L440,88Z" fill="#42dfb3" stroke="#42dfb3" stroke-width="1.51"/><path d="M385,3L346,255L440,88Z" fill="#42e1b0" stroke="#42e1b0" stroke-width="1.51"/><path d="M894,1361L1109,1251L846,1019Z" fill="#3bc6cf" stroke="#3bc6cf" stroke-width="1.51"/><path d="M1237,1119L1384,1296L1406,1089Z" fill="#37c3d3" stroke="#37c3d3" stroke-width="1.51"/><path d="M1406,1089L1637,1101L1649,996Z" fill="#37c1d4" stroke="#37c1d4" stroke-width="1.51"/><path d="M1727,906L1949,802L1801,685Z" fill="#39c3d2" stroke="#39c3d2" stroke-width="1.51"/><path d="M1649,996L1845,1025L1727,906Z" fill="#37c1d5" stroke="#37c1d5" stroke-width="1.51"/><path d="M1550,1293L1637,1101L1406,1089Z" fill="#36c0d5" stroke="#36c0d5" stroke-width="1.51"/><path d="M2010,84L1828,-61L1724,121Z" fill="#40d1c3" stroke="#40d1c3" stroke-width="1.51"/><path d="M458,-9L385,3L440,88Z" fill="#42e2af" stroke="#42e2af" stroke-width="1.51"/><path d="M662,-215L502,-142L676,-71Z" fill="#41e3ae" stroke="#41e3ae" stroke-width="1.51"/><path d="M502,-142L385,3L458,-9Z" fill="#41e4ad" stroke="#41e4ad" stroke-width="1.51"/><path d="M1828,-61L1712,-241L1632,-156Z" fill="#41d7bd" stroke="#41d7bd" stroke-width="1.51"/><path d="M1632,-156L1712,-241L1315,-267Z" fill="#42dab9" stroke="#42dab9" stroke-width="1.51"/><path d="M394,569L343,807L519,760Z" fill="#41d6bd" stroke="#41d6bd" stroke-width="1.51"/><path d="M445,1109L755,1281L737,1061Z" fill="#3ecbc9" stroke="#3ecbc9" stroke-width="1.51"/><path d="M124,521L343,807L394,569Z" fill="#42d9ba" stroke="#42d9ba" stroke-width="1.51"/><path d="M1845,1025L1949,802L1727,906Z" fill="#36c1d4" stroke="#36c1d4" stroke-width="1.51"/><path d="M1237,1350L1384,1296L1237,1119Z" fill="#37c1d4" stroke="#37c1d4" stroke-width="1.51"/><path d="M1637,1101L1845,1025L1649,996Z" fill="#36c0d6" stroke="#36c0d6" stroke-width="1.51"/><path d="M1857,1245L1845,1025L1637,1101Z" fill="#33bed8" stroke="#33bed8" stroke-width="1.51"/><path d="M894,1361L1237,1350L1109,1251Z" fill="#38c3d3" stroke="#38c3d3" stroke-width="1.51"/><path d="M1109,1251L1237,1350L1237,1119Z" fill="#38c3d3" stroke="#38c3d3" stroke-width="1.51"/><path d="M1936,375L2010,84L1724,121Z" fill="#3fcec6" stroke="#3fcec6" stroke-width="1.51"/><path d="M1828,-61L2004,-275L1712,-241Z" fill="#41d6bd" stroke="#41d6bd" stroke-width="1.51"/><path d="M2100,123L2010,84L1936,375Z" fill="#3fcdc8" stroke="#3fcdc8" stroke-width="1.51"/><path d="M2100,123L1936,375L2176,311Z" fill="#3dcaca" stroke="#3dcaca" stroke-width="1.51"/><path d="M737,1061L755,1281L846,1019Z" fill="#3dcacb" stroke="#3dcacb" stroke-width="1.51"/><path d="M445,1109L686,976L493,902Z" fill="#40cfc5" stroke="#40cfc5" stroke-width="1.51"/><path d="M1237,1350L1550,1293L1384,1296Z" fill="#34bfd7" stroke="#34bfd7" stroke-width="1.51"/><path d="M1384,1296L1550,1293L1406,1089Z" fill="#35c0d6" stroke="#35c0d6" stroke-width="1.51"/><path d="M755,1281L894,1361L846,1019Z" fill="#3cc8ce" stroke="#3cc8ce" stroke-width="1.51"/><path d="M232,992L445,1109L493,902Z" fill="#40d1c3" stroke="#40d1c3" stroke-width="1.51"/><path d="M755,1281L445,1277L894,1361Z" fill="#3bc8cd" stroke="#3bc8cd" stroke-width="1.51"/><path d="M341,289L160,348L394,569Z" fill="#42ddb5" stroke="#42ddb5" stroke-width="1.51"/><path d="M232,992L377,1164L445,1109Z" fill="#40cfc4" stroke="#40cfc4" stroke-width="1.51"/><path d="M346,255L160,348L341,289Z" fill="#42dfb3" stroke="#42dfb3" stroke-width="1.51"/><path d="M122,130L160,348L346,255Z" fill="#42e1b0" stroke="#42e1b0" stroke-width="1.51"/><path d="M1845,1025L1982,952L1949,802Z" fill="#35c0d6" stroke="#35c0d6" stroke-width="1.51"/><path d="M2176,311L1936,375L1951,509Z" fill="#3cc9cc" stroke="#3cc9cc" stroke-width="1.51"/><path d="M2056,1072L1982,952L1845,1025Z" fill="#33bed8" stroke="#33bed8" stroke-width="1.51"/><path d="M2010,84L2061,-40L1828,-61Z" fill="#40d1c3" stroke="#40d1c3" stroke-width="1.51"/><path d="M2135,624L1951,509L1949,802Z" fill="#39c4d1" stroke="#39c4d1" stroke-width="1.51"/><path d="M2244,786L2135,624L1949,802Z" fill="#36c1d4" stroke="#36c1d4" stroke-width="1.51"/><path d="M160,348L124,521L394,569Z" fill="#42dcb6" stroke="#42dcb6" stroke-width="1.51"/><path d="M2100,123L2061,-40L2010,84Z" fill="#3fcfc6" stroke="#3fcfc6" stroke-width="1.51"/><path d="M2100,123L2148,-53L2061,-40Z" fill="#40cfc5" stroke="#40cfc5" stroke-width="1.51"/><path d="M2135,624L2176,311L1951,509Z" fill="#3bc6cf" stroke="#3bc6cf" stroke-width="1.51"/><path d="M385,3L122,130L346,255Z" fill="#42e2af" stroke="#42e2af" stroke-width="1.51"/><path d="M160,348L-43,308L124,521Z" fill="#42e0b2" stroke="#42e0b2" stroke-width="1.51"/><path d="M502,-142L261,-153L385,3Z" fill="#41e5ab" stroke="#41e5ab" stroke-width="1.51"/><path d="M662,-215L261,-153L502,-142Z" fill="#41e5ab" stroke="#41e5ab" stroke-width="1.51"/><path d="M261,-153L122,130L385,3Z" fill="#42e5ab" stroke="#42e5ab" stroke-width="1.51"/><path d="M445,1109L445,1277L755,1281Z" fill="#3dcbca" stroke="#3dcbca" stroke-width="1.51"/><path d="M232,992L493,902L343,807Z" fill="#41d3c0" stroke="#41d3c0" stroke-width="1.51"/><path d="M88,853L232,992L343,807Z" fill="#41d5be" stroke="#41d5be" stroke-width="1.51"/><path d="M2211,895L2244,786L1949,802Z" fill="#35bfd7" stroke="#35bfd7" stroke-width="1.51"/><path d="M1550,1293L1857,1245L1637,1101Z" fill="#33bed9" stroke="#33bed9" stroke-width="1.51"/><path d="M1947,1248L1857,1245L1550,1293Z" fill="#30bbdb" stroke="#30bbdb" stroke-width="1.51"/><path d="M333,1297L445,1277L377,1164Z" fill="#3eccc8" stroke="#3eccc8" stroke-width="1.51"/><path d="M377,1164L445,1277L445,1109Z" fill="#3fcdc7" stroke="#3fcdc7" stroke-width="1.51"/><path d="M2061,-40L2004,-275L1828,-61Z" fill="#41d3c0" stroke="#41d3c0" stroke-width="1.51"/><path d="M1712,-241L2004,-275L1315,-267Z" fill="#42d9ba" stroke="#42d9ba" stroke-width="1.51"/><path d="M2085,-218L2004,-275L2061,-40Z" fill="#41d3c1" stroke="#41d3c1" stroke-width="1.51"/><path d="M2322,86L2148,-53L2100,123Z" fill="#3fcdc7" stroke="#3fcdc7" stroke-width="1.51"/><path d="M1947,1248L2056,1072L1845,1025Z" fill="#31bcda" stroke="#31bcda" stroke-width="1.51"/><path d="M124,521L49,677L343,807Z" fill="#42dab9" stroke="#42dab9" stroke-width="1.51"/><path d="M-59,624L49,677L124,521Z" fill="#42dcb6" stroke="#42dcb6" stroke-width="1.51"/><path d="M49,677L88,853L343,807Z" fill="#42d8bb" stroke="#42d8bb" stroke-width="1.51"/><path d="M232,992L170,1025L377,1164Z" fill="#40d1c2" stroke="#40d1c2" stroke-width="1.51"/><path d="M2148,-53L2085,-218L2061,-40Z" fill="#40d1c3" stroke="#40d1c3" stroke-width="1.51"/><path d="M2322,568L2284,365L2135,624Z" fill="#39c3d2" stroke="#39c3d2" stroke-width="1.51"/><path d="M2135,624L2284,365L2176,311Z" fill="#3ac6cf" stroke="#3ac6cf" stroke-width="1.51"/><path d="M2176,311L2322,86L2100,123Z" fill="#3dcaca" stroke="#3dcaca" stroke-width="1.51"/><path d="M88,853L170,1025L232,992Z" fill="#41d4bf" stroke="#41d4bf" stroke-width="1.51"/><path d="M2159,1274L1947,1248L2293,1324Z" fill="#28b7df" stroke="#28b7df" stroke-width="1.51"/><path d="M1857,1245L1947,1248L1845,1025Z" fill="#30bcda" stroke="#30bcda" stroke-width="1.51"/><path d="M2211,895L1982,952L2056,1072Z" fill="#32bdd9" stroke="#32bdd9" stroke-width="1.51"/><path d="M2211,895L1949,802L1982,952Z" fill="#34bfd7" stroke="#34bfd7" stroke-width="1.51"/><path d="M2301,1054L2211,895L2056,1072Z" fill="#2fbbdb" stroke="#2fbbdb" stroke-width="1.51"/><path d="M122,130L-43,308L160,348Z" fill="#41e2af" stroke="#41e2af" stroke-width="1.51"/><path d="M261,-153L81,-88L122,130Z" fill="#41e7aa" stroke="#41e7aa" stroke-width="1.51"/><path d="M2325,747L2135,624L2244,786Z" fill="#35c0d5" stroke="#35c0d5" stroke-width="1.51"/><path d="M2325,747L2322,568L2135,624Z" fill="#37c1d4" stroke="#37c1d4" stroke-width="1.51"/><path d="M170,1025L333,1297L377,1164Z" fill="#40cfc5" stroke="#40cfc5" stroke-width="1.51"/><path d="M445,1277L172,1357L894,1361Z" fill="#3dcacb" stroke="#3dcacb" stroke-width="1.51"/><path d="M-121,86L-43,308L122,130Z" fill="#41e5ac" stroke="#41e5ac" stroke-width="1.51"/><path d="M49,677L-96,756L88,853Z" fill="#42d9b9" stroke="#42d9b9" stroke-width="1.51"/><path d="M1947,1248L2100,1153L2056,1072Z" fill="#2ebadc" stroke="#2ebadc" stroke-width="1.51"/><path d="M261,-153L83,-172L81,-88Z" fill="#40e9a7" stroke="#40e9a7" stroke-width="1.51"/><path d="M81,-88L9,-52L122,130Z" fill="#41e7a9" stroke="#41e7a9" stroke-width="1.51"/><path d="M662,-215L83,-172L261,-153Z" fill="#41e8a9" stroke="#41e8a9" stroke-width="1.51"/><path d="M-197,-261L83,-172L662,-215Z" fill="#3feaa6" stroke="#3feaa6" stroke-width="1.51"/><path d="M88,853L-84,896L170,1025Z" fill="#42d6bd" stroke="#42d6bd" stroke-width="1.51"/><path d="M-43,308L-59,624L124,521Z" fill="#42dfb3" stroke="#42dfb3" stroke-width="1.51"/><path d="M2386,973L2325,747L2244,786Z" fill="#33bed8" stroke="#33bed8" stroke-width="1.51"/><path d="M2386,973L2244,786L2211,895Z" fill="#31bdd9" stroke="#31bdd9" stroke-width="1.51"/><path d="M2284,365L2322,86L2176,311Z" fill="#3cc8cc" stroke="#3cc8cc" stroke-width="1.51"/><path d="M2148,-53L2279,-148L2085,-218Z" fill="#41d1c3" stroke="#41d1c3" stroke-width="1.51"/><path d="M2418,-97L2322,86L2284,365Z" fill="#3ecbca" stroke="#3ecbca" stroke-width="1.51"/><path d="M2418,-97L2284,365L2322,568Z" fill="#3cc8cd" stroke="#3cc8cd" stroke-width="1.51"/><path d="M-55,-146L9,-52L81,-88Z" fill="#40e9a6" stroke="#40e9a6" stroke-width="1.51"/><path d="M2085,-218L2279,-148L2004,-275Z" fill="#41d3c1" stroke="#41d3c1" stroke-width="1.51"/><path d="M2322,86L2279,-148L2148,-53Z" fill="#3fcec6" stroke="#3fcec6" stroke-width="1.51"/><path d="M-59,624L-96,756L49,677Z" fill="#42dcb6" stroke="#42dcb6" stroke-width="1.51"/><path d="M170,1025L172,1357L333,1297Z" fill="#3fcec6" stroke="#3fcec6" stroke-width="1.51"/><path d="M-199,617L-96,756L-59,624Z" fill="#42ddb5" stroke="#42ddb5" stroke-width="1.51"/><path d="M-43,308L-198,427L-59,624Z" fill="#42e1b0" stroke="#42e1b0" stroke-width="1.51"/><path d="M9,-52L-121,86L122,130Z" fill="#41e7a9" stroke="#41e7a9" stroke-width="1.51"/><path d="M-55,-146L-121,86L9,-52Z" fill="#40e9a6" stroke="#40e9a6" stroke-width="1.51"/><path d="M-96,756L-84,896L88,853Z" fill="#42d9ba" stroke="#42d9ba" stroke-width="1.51"/><path d="M2100,1153L2301,1054L2056,1072Z" fill="#2ebadc" stroke="#2ebadc" stroke-width="1.51"/><path d="M2159,1274L2301,1054L2100,1153Z" fill="#2bb9de" stroke="#2bb9de" stroke-width="1.51"/><path d="M1947,1248L2159,1274L2100,1153Z" fill="#2bb8de" stroke="#2bb8de" stroke-width="1.51"/><path d="M2293,1324L1947,1248L1550,1293Z" fill="#2cb9de" stroke="#2cb9de" stroke-width="1.51"/><path d="M83,-172L-55,-146L81,-88Z" fill="#40eaa5" stroke="#40eaa5" stroke-width="1.51"/><path d="M-96,756L-181,796L-84,896Z" fill="#42dab8" stroke="#42dab8" stroke-width="1.51"/><path d="M-203,207L-198,427L-43,308Z" fill="#41e4ad" stroke="#41e4ad" stroke-width="1.51"/><path d="M-20,1316L172,1357L170,1025Z" fill="#40d0c4" stroke="#40d0c4" stroke-width="1.51"/><path d="M333,1297L172,1357L445,1277Z" fill="#3eccc8" stroke="#3eccc8" stroke-width="1.51"/><path d="M-198,427L-199,617L-59,624Z" fill="#42dfb2" stroke="#42dfb2" stroke-width="1.51"/><path d="M2325,747L2386,973L2322,568Z" fill="#34bfd7" stroke="#34bfd7" stroke-width="1.51"/><path d="M2301,1054L2386,973L2211,895Z" fill="#2fbbdb" stroke="#2fbbdb" stroke-width="1.51"/><path d="M2293,1324L2386,973L2301,1054Z" fill="#2bb8de" stroke="#2bb8de" stroke-width="1.51"/><path d="M-121,86L-203,207L-43,308Z" fill="#41e6ab" stroke="#41e6ab" stroke-width="1.51"/><path d="M-198,427L-265,880L-199,617Z" fill="#42dfb3" stroke="#42dfb3" stroke-width="1.51"/><path d="M-285,-96L-203,207L-121,86Z" fill="#3fe9a7" stroke="#3fe9a7" stroke-width="1.51"/><path d="M-199,617L-181,796L-96,756Z" fill="#42ddb6" stroke="#42ddb6" stroke-width="1.51"/><path d="M-84,896L-140,1071L170,1025Z" fill="#42d6be" stroke="#42d6be" stroke-width="1.51"/><path d="M2322,86L2418,-97L2279,-148Z" fill="#3fcec6" stroke="#3fcec6" stroke-width="1.51"/><path d="M2279,-148L2418,-97L2004,-275Z" fill="#40d1c3" stroke="#40d1c3" stroke-width="1.51"/><path d="M2386,973L2418,-97L2322,568Z" fill="#39c4d1" stroke="#39c4d1" stroke-width="1.51"/><path d="M-265,880L-140,1071L-84,896Z" fill="#42d9ba" stroke="#42d9ba" stroke-width="1.51"/><path d="M2159,1274L2293,1324L2301,1054Z" fill="#28b7e0" stroke="#28b7e0" stroke-width="1.51"/><path d="M1237,1350L2293,1324L1550,1293Z" fill="#2fbbdb" stroke="#2fbbdb" stroke-width="1.51"/><path d="M894,1361L2293,1324L1237,1350Z" fill="#32bdd9" stroke="#32bdd9" stroke-width="1.51"/><path d="M-140,1071L-20,1316L170,1025Z" fill="#41d3c0" stroke="#41d3c0" stroke-width="1.51"/><path d="M-181,796L-265,880L-84,896Z" fill="#42dab8" stroke="#42dab8" stroke-width="1.51"/><path d="M-140,1071L-268,1120L-20,1316Z" fill="#41d4bf" stroke="#41d4bf" stroke-width="1.51"/><path d="M-199,617L-265,880L-181,796Z" fill="#42dcb6" stroke="#42dcb6" stroke-width="1.51"/><path d="M-285,-96L-265,880L-198,427Z" fill="#41e4ad" stroke="#41e4ad" stroke-width="1.51"/><path d="M83,-172L-197,-261L-55,-146Z" fill="#3eeca3" stroke="#3eeca3" stroke-width="1.51"/><path d="M-55,-146L-285,-96L-121,86Z" fill="#3feba5" stroke="#3feba5" stroke-width="1.51"/><path d="M-203,207L-285,-96L-198,427Z" fill="#40e7a9" stroke="#40e7a9" stroke-width="1.51"/><path d="M1315,-267L-197,-261L662,-215Z" fill="#41e5ab" stroke="#41e5ab" stroke-width="1.51"/><path d="M2004,-275L-197,-261L1315,-267Z" fill="#42e1b1" stroke="#42e1b1" stroke-width="1.51"/><path d="M-197,-261L-285,-96L-55,-146Z" fill="#3eeda2" stroke="#3eeda2" stroke-width="1.51"/><path d="M-265,880L-268,1120L-140,1071Z" fill="#42d8bb" stroke="#42d8bb" stroke-width="1.51"/><path d="M-315,1253L-268,1120L-265,880Z" fill="#42d8bc" stroke="#42d8bc" stroke-width="1.51"/><path d="M-268,1120L-315,1253L-20,1316Z" fill="#41d4c0" stroke="#41d4c0" stroke-width="1.51"/><path d="M-285,-96L-315,1253L-265,880Z" fill="#42dfb3" stroke="#42dfb3" stroke-width="1.51"/></svg>